<?xml version="1.0" encoding="utf-8"?>
<!-- Generator: Adobe Illustrator 25.0.0, SVG Export Plug-In . SVG Version: 6.00 Build 0)  -->
<svg version="1.1" id="Layer_1" xmlns="http://www.w3.org/2000/svg" xmlns:xlink="http://www.w3.org/1999/xlink" x="0px" y="0px"
	 viewBox="0 0 96.4 193" style="enable-background:new 0 0 96.4 193;" xml:space="preserve">
<style type="text/css">
	.st0{filter:url(#Adobe_OpacityMaskFilter);}
	.st1{opacity:0.3;mask:url(#SVGID_1_);}
	.st2{opacity:0.24;stroke:#000000;stroke-width:6;stroke-linecap:round;stroke-linejoin:round;enable-background:new    ;}
	.st3{fill:#FCA417;}
	.st4{opacity:0.33;fill:#FFFFFF;enable-background:new    ;}
	.st5{fill:#FCA84C;}
	.st6{opacity:0.66;fill:#FCA84C;enable-background:new    ;}
	.st7{fill:#514447;}
	.st8{fill:#83906F;}
	.st9{fill:#664A4A;}
	.st10{fill:#FF1F1F;}
</style>
<defs>
	<filter id="Adobe_OpacityMaskFilter" filterUnits="userSpaceOnUse" x="3.6" y="5.5" width="117.6" height="181.1">
		<feFlood  style="flood-color:white;flood-opacity:1" result="back"/>
		<feBlend  in="SourceGraphic" in2="back" mode="normal"/>
	</filter>
</defs>
<mask maskUnits="userSpaceOnUse" x="3.6" y="5.5" width="117.6" height="181.1" id="SVGID_1_">
	<g class="st0">
	</g>
</mask>
<g class="st1">
	<path class="st2" d="M18,13.9h96.8c1.9,0,3.5,1.5,3.5,3.5V167c0,9.2-7.4,16.6-16.6,16.6H18c-1.9,0-3.5-1.5-3.5-3.5V17.4
		C14.5,15.5,16.1,13.9,18,13.9z"/>
	<path class="st3" d="M8.1,6.5h96.8c1.9,0,3.5,1.5,3.5,3.5v149.6c0,9.2-7.4,16.6-16.6,16.6H8.1c-1.9,0-3.5-1.5-3.5-3.5V10
		C4.6,8.1,6.2,6.5,8.1,6.5L8.1,6.5z"/>
	<path class="st4" d="M8.7,171.5V11.3c0-2.6,2.1-4.7,4.7-4.7H9.4c-2.6,0-4.7,2.1-4.7,4.7v160.3c0,2.6,2.1,4.7,4.7,4.7h4.1
		C10.8,176.2,8.7,174.1,8.7,171.5L8.7,171.5z"/>
	<circle class="st5" cx="35.7" cy="123" r="17.9"/>
	<path class="st6" d="M22.6,112.5c6-7.6,17-8.9,24.7-3.1c-0.1-0.1-0.3-0.2-0.4-0.4c-7.7-6.2-19-4.9-25.2,2.8
		c-6.2,7.7-4.9,19,2.8,25.2c0.1,0.1,0.3,0.2,0.4,0.3C17.6,131,16.6,120,22.6,112.5z"/>
	<g>
		<path class="st5" d="M103.6,6.5h-4.3c2.6,0,4.8,2.1,4.8,4.7v142.3c0,12.5-10.2,22.6-22.7,22.6h4.3c12.5,0,22.6-10.1,22.6-22.6l0,0
			V11.3C108.3,8.6,106.2,6.5,103.6,6.5z"/>
		<path class="st5" d="M71.9,176.2h13.8c12.5,0,22.6-10.1,22.6-22.6l0,0v-13.8L71.9,176.2z"/>
		<path class="st5" d="M85.7,172.9H12.3c-1.8,0-3.2,1.4-3.2,3.2v0.1h76.7c20.1,0,22.6-10.1,22.6-22.6v-3.3
			C108.3,162.8,98.2,172.9,85.7,172.9z"/>
	</g>
	<g>
		<path d="M91.7,177.3H8.1c-2.5,0-4.5-2-4.5-4.5V10c0-2.5,2-4.5,4.5-4.5h96.8c2.5,0,4.5,2,4.5,4.5v149.6
			C109.4,169.3,101.5,177.3,91.7,177.3z M8.1,7.6c-1.3,0-2.4,1.1-2.4,2.4v162.8c0,1.3,1.1,2.4,2.4,2.4h83.6c8.6,0,15.6-7,15.6-15.6
			V10c0-1.3-1.1-2.4-2.4-2.4H8.1z"/>
	</g>
	<path class="st7" d="M20.2,25.9h72.6c0.8,0,1.4,0.6,1.4,1.4v52.6c0,3.1-2.5,5.5-5.5,5.5H20.2c-0.8,0-1.4-0.6-1.4-1.4V27.2
		C18.8,26.5,19.4,25.9,20.2,25.9z"/>
	<g>
		<path d="M88.7,86H20.2c-1.1,0-2.1-0.9-2.1-2.1V27.2c0-1.1,0.9-2.1,2.1-2.1h72.6c1.1,0,2.1,0.9,2.1,2.1v52.6
			C94.9,83.2,92.1,86,88.7,86z M20.2,26.6c-0.4,0-0.7,0.3-0.7,0.7v56.7c0,0.4,0.3,0.7,0.7,0.7h68.5c2.7,0,4.8-2.2,4.8-4.8V27.2
			c0-0.4-0.3-0.7-0.7-0.7H20.2z"/>
	</g>
	<path class="st8" d="M33.3,35.4h46.4c0.2,0,0.3,0.2,0.3,0.3v42.7c0,0.2-0.2,0.3-0.3,0.3H33.3c-0.2,0-0.3-0.2-0.3-0.3V35.7
		C32.9,35.5,33.1,35.4,33.3,35.4z"/>
	<g>
		<path d="M79.7,79.4H33.3c-0.6,0-1-0.5-1-1V35.7c0-0.6,0.5-1,1-1h46.4c0.6,0,1,0.5,1,1v42.7C80.7,79,80.3,79.4,79.7,79.4z M33.6,78
			h45.8v-42H33.6V78z M79.7,36.1L79.7,36.1L79.7,36.1z"/>
	</g>
	<g>
		<path d="M108.3,16.7H4.6c-0.4,0-0.7-0.3-0.7-0.7v-4.7c0-3,2.4-5.4,5.4-5.4h94.3l0,0c3,0,5.4,2.4,5.4,5.4V16
			C109,16.3,108.7,16.7,108.3,16.7z M5.3,15.3h102.3v-4c0-2.2-1.8-4-4-4H9.4c-2.2,0-4,1.8-4,4V15.3z"/>
	</g>
	<g>
		<path d="M94.2,94.9H66.4c-0.4,0-0.7-0.3-0.7-0.7c0-0.4,0.3-0.7,0.7-0.7h27.8c0.4,0,0.7,0.3,0.7,0.7C94.9,94.6,94.6,94.9,94.2,94.9
			z"/>
	</g>
	<g>
		<path d="M46.6,94.9H18.8c-0.4,0-0.7-0.3-0.7-0.7c0-0.4,0.3-0.7,0.7-0.7h27.8c0.4,0,0.7,0.3,0.7,0.7C47.3,94.6,47,94.9,46.6,94.9z"
			/>
	</g>
	<path class="st9" d="M24.5,119.1h23.2c0.9,0,1.6,0.7,1.6,1.6v4.5c0,0.9-0.7,1.6-1.6,1.6H24.5c-0.9,0-1.6-0.7-1.6-1.6v-4.5
		C22.9,119.8,23.7,119.1,24.5,119.1z"/>
	<path class="st9" d="M33.9,109.8h4.5c0.9,0,1.6,0.7,1.6,1.6l0,0v23.2c0,0.9-0.7,1.6-1.6,1.6l0,0h-4.5c-0.9,0-1.6-0.7-1.6-1.6l0,0
		v-23.2C32.3,110.5,33,109.8,33.9,109.8z"/>
	<g>
		<path d="M37.8,136.8h-3.2c-1.6,0-2.8-1.3-2.8-2.8v-6.5c0,0,0,0,0,0h-6.6c-1.5,0-2.8-1.2-2.8-2.8v-3.4c0-1.5,1.2-2.8,2.8-2.8h6.6
			c0,0,0,0,0,0v-6.7c0-1.5,1.2-2.7,2.7-2.7h3.4c1.6,0,2.8,1.3,2.8,2.8v6.5c0,0,0,0,0,0h6.6h0c1.5,0,2.8,1.2,2.8,2.8v3.2
			c0,1.6-1.3,2.9-2.9,2.9h-6.5c0,0,0,0,0,0v6.5C40.7,135.6,39.4,136.8,37.8,136.8z M25.1,119.9c-0.8,0-1.4,0.6-1.4,1.4v3.4
			c0,0.8,0.6,1.4,1.4,1.4h6.6c0.8,0,1.4,0.6,1.4,1.4v6.5c0,0.8,0.7,1.5,1.5,1.5h3.2c0.8,0,1.5-0.7,1.5-1.5v-6.5
			c0-0.8,0.6-1.4,1.4-1.4h6.5c0.8,0,1.5-0.7,1.5-1.5v-3.2c0-0.4-0.1-0.7-0.4-1c-0.3-0.3-0.6-0.4-1-0.4h0h0h-6.6
			c-0.8,0-1.4-0.6-1.4-1.4v-6.5c0-0.8-0.7-1.5-1.5-1.5h-3.4c-0.7,0-1.3,0.6-1.3,1.3v6.7c0,0.8-0.6,1.4-1.4,1.4H25.1z"/>
	</g>
	<path class="st5" d="M76.2,136c-3.9,0-7.1-3.2-7.1-7.1c0-1.9,0.7-3.7,2.1-5l12-12c2.8-2.8,7.2-2.8,10,0c2.8,2.8,2.8,7.2,0,10l0,0
		l-12,12C79.9,135.3,78.1,136,76.2,136z"/>
	<path class="st6" d="M71.8,134c-2.8-2.8-2.8-7.2,0-10l12-12c1.3-1.3,2.9-2,4.7-2.1c-0.1,0-0.2,0-0.3,0c-1.9,0-3.7,0.7-5,2.1l-12,12
		c-2.8,2.8-2.8,7.2,0,10c1.3,1.3,3.1,2.1,5,2.1c0.1,0,0.2,0,0.3,0C74.7,135.9,73,135.2,71.8,134z"/>
	<circle class="st10" cx="88.2" cy="117" r="4.7"/>
	<circle class="st10" cx="76.2" cy="129" r="4.7"/>
	<g>
		<path d="M88.2,122.4c-3,0-5.4-2.4-5.4-5.4c0-3,2.4-5.4,5.4-5.4c3,0,5.4,2.4,5.4,5.4C93.6,119.9,91.2,122.4,88.2,122.4z
			 M88.2,112.9c-2.2,0-4,1.8-4,4s1.8,4,4,4c2.2,0,4-1.8,4-4S90.4,112.9,88.2,112.9z"/>
	</g>
	<g>
		<path d="M76.2,134.4c-3,0-5.4-2.4-5.4-5.4c0-3,2.4-5.4,5.4-5.4s5.4,2.4,5.4,5.4C81.6,131.9,79.2,134.4,76.2,134.4z M76.2,124.9
			c-2.2,0-4,1.8-4,4s1.8,4,4,4s4-1.8,4-4S78.4,124.9,76.2,124.9z"/>
	</g>
	<g>
		<path d="M47.5,155.7c-0.4,0-0.9-0.2-1.2-0.5l-0.7-0.7c-0.3-0.3-0.5-0.8-0.5-1.2c0-0.5,0.2-0.9,0.5-1.2l7.3-7.3
			c0.3-0.3,0.8-0.5,1.2-0.5c0.5,0,0.9,0.2,1.2,0.5l0.7,0.7c0.3,0.3,0.5,0.8,0.5,1.2c0,0.5-0.2,0.9-0.5,1.2l-7.3,7.3
			C48.4,155.5,48,155.7,47.5,155.7z M54.1,145.6c-0.1,0-0.2,0-0.2,0.1l-7.3,7.3c-0.1,0.1-0.1,0.2-0.1,0.2c0,0.1,0,0.2,0.1,0.2
			l0.7,0.7c0.1,0.1,0.4,0.1,0.5,0l7.3-7.3c0.1-0.1,0.1-0.2,0.1-0.2c0-0.1,0-0.2-0.1-0.2l-0.7-0.7l0,0
			C54.3,145.6,54.2,145.6,54.1,145.6z"/>
	</g>
	<g>
		<path d="M59.4,155.7c-0.5,0-0.9-0.2-1.2-0.5l-0.7-0.7c-0.3-0.3-0.5-0.8-0.5-1.2c0-0.5,0.2-0.9,0.5-1.2l7.3-7.3
			c0.7-0.7,1.8-0.7,2.4,0c0,0,0,0,0,0l0.7,0.7c0.3,0.3,0.5,0.8,0.5,1.2c0,0.5-0.2,0.9-0.5,1.2l-7.3,7.3
			C60.3,155.5,59.8,155.7,59.4,155.7z M65.9,145.6c-0.1,0-0.2,0-0.2,0.1l-7.3,7.3c-0.1,0.1-0.1,0.2-0.1,0.2c0,0.1,0,0.2,0.1,0.2
			l0.7,0.7c0.1,0.1,0.4,0.1,0.5,0l7.3-7.3c0.1-0.1,0.1-0.2,0.1-0.2c0-0.1,0-0.2-0.1-0.2l-0.7-0.7C66.1,145.6,66,145.6,65.9,145.6z"
			/>
	</g>
	<g>
		<path d="M88.7,163.9c-0.3,0-0.5-0.1-0.7-0.3l-5.7-5.7c-0.4-0.4-0.4-1.1,0-1.5c0.4-0.4,1.1-0.4,1.5,0l5.7,5.7
			c0.4,0.4,0.4,1.1,0,1.5C89.2,163.8,89,163.9,88.7,163.9z"/>
	</g>
	<g>
		<path d="M85,167.6c-0.3,0-0.5-0.1-0.7-0.3l-5.7-5.7c-0.4-0.4-0.4-1.1,0-1.5c0.4-0.4,1.1-0.4,1.5,0l5.7,5.7c0.4,0.4,0.4,1.1,0,1.5
			C85.6,167.5,85.3,167.6,85,167.6z"/>
	</g>
	<g>
		<path d="M92.7,159.9c-0.3,0-0.5-0.1-0.7-0.3l-5.7-5.7c-0.4-0.4-0.4-1.1,0-1.5s1.1-0.4,1.5,0l5.7,5.7c0.4,0.4,0.4,1.1,0,1.5
			C93.2,159.8,93,159.9,92.7,159.9z"/>
	</g>
	<g>
		<path d="M96.4,156.2c-0.3,0-0.5-0.1-0.7-0.3l-5.7-5.7c-0.4-0.4-0.4-1.1,0-1.5c0.4-0.4,1.1-0.4,1.5,0l5.7,5.7
			c0.4,0.4,0.4,1.1,0,1.5C96.9,156.1,96.6,156.2,96.4,156.2z"/>
	</g>
	<g>
		<path d="M100,152.6c-0.3,0-0.5-0.1-0.7-0.3l-5.7-5.7c-0.4-0.4-0.4-1.1,0-1.5s1.1-0.4,1.5,0l5.7,5.7c0.4,0.4,0.4,1.1,0,1.5
			C100.6,152.5,100.3,152.6,100,152.6z"/>
	</g>
	<g>
		<path d="M97.7,16.7H15.5c-0.4,0-0.7-0.3-0.7-0.7V6.5c0-0.4,0.3-0.7,0.7-0.7h82.2c0.4,0,0.7,0.3,0.7,0.7V16
			C98.4,16.3,98.1,16.7,97.7,16.7z M16.2,15.3H97v-8H16.2V15.3z"/>
	</g>
	<g>
		<path d="M59.6,31.7H25.9c-0.4,0-0.7-0.3-0.7-0.7s0.3-0.7,0.7-0.7h33.8c0.4,0,0.7,0.3,0.7,0.7S60,31.7,59.6,31.7z"/>
	</g>
	<g>
		<path d="M88.5,31.7H77.7c-0.4,0-0.7-0.3-0.7-0.7s0.3-0.7,0.7-0.7h10.8c0.4,0,0.7,0.3,0.7,0.7S88.9,31.7,88.5,31.7z"/>
	</g>
	<g>
		<path d="M51.4,96.1c-0.4,0-0.7-0.3-0.7-0.7V93c0-0.4,0.3-0.7,0.7-0.7s0.7,0.3,0.7,0.7v2.5C52.1,95.8,51.8,96.1,51.4,96.1z"/>
	</g>
	<g>
		<path d="M54.8,96.1c-0.4,0-0.7-0.3-0.7-0.7V93c0-0.4,0.3-0.7,0.7-0.7s0.7,0.3,0.7,0.7v2.5C55.5,95.8,55.2,96.1,54.8,96.1z"/>
	</g>
	<g>
		<path d="M58.2,96.1c-0.4,0-0.7-0.3-0.7-0.7V93c0-0.4,0.3-0.7,0.7-0.7s0.7,0.3,0.7,0.7v2.5C58.9,95.8,58.6,96.1,58.2,96.1z"/>
	</g>
	<g>
		<path d="M61.6,96.1c-0.4,0-0.7-0.3-0.7-0.7V93c0-0.4,0.3-0.7,0.7-0.7s0.7,0.3,0.7,0.7v2.5C62.3,95.8,62,96.1,61.6,96.1z"/>
	</g>
</g>
</svg>
