<?xml version="1.0" encoding="UTF-8"?>
<svg xmlns="http://www.w3.org/2000/svg" xmlns:xlink="http://www.w3.org/1999/xlink" width="106pt" height="100pt" viewBox="0 0 106 100" version="1.1">
<g id="surface1">
<path style=" stroke:none;fill-rule:nonzero;fill:rgb(24.705882%,23.921569%,33.72549%);fill-opacity:1;" d="M 61.617188 65.351562 L 61.617188 99.988281 L 106.039062 99.988281 L 106.039062 65.351562 Z M 100.238281 74.617188 L 96.800781 74.617188 L 96.800781 71.164062 L 100.238281 71.164062 Z M 100.238281 74.617188 "/>
<path style=" stroke:none;fill-rule:nonzero;fill:rgb(24.705882%,23.921569%,33.72549%);fill-opacity:1;" d="M 0 65.351562 L 57.890625 65.351562 L 57.890625 74.40625 L 0 74.40625 Z M 0 65.351562 "/>
<path style=" stroke:none;fill-rule:nonzero;fill:rgb(24.705882%,23.921569%,33.72549%);fill-opacity:1;" d="M 0 78.144531 L 57.890625 78.144531 L 57.890625 87.199219 L 0 87.199219 Z M 0 78.144531 "/>
<path style=" stroke:none;fill-rule:nonzero;fill:rgb(24.705882%,23.921569%,33.72549%);fill-opacity:1;" d="M 0 90.933594 L 57.890625 90.933594 L 57.890625 99.988281 L 0 99.988281 Z M 0 90.933594 "/>
<path style=" stroke:none;fill-rule:nonzero;fill:rgb(24.705882%,23.921569%,33.72549%);fill-opacity:1;" d="M 10.316406 21.660156 L 13.183594 21.660156 L 13.183594 25.398438 L 10.316406 25.398438 Z M 10.316406 21.660156 "/>
<path style=" stroke:none;fill-rule:nonzero;fill:rgb(24.705882%,23.921569%,33.72549%);fill-opacity:1;" d="M 87.554688 50.835938 L 87.554688 53.710938 L 83.828125 53.710938 L 83.828125 50.835938 Z M 87.554688 50.835938 "/>
<path style=" stroke:none;fill-rule:nonzero;fill:rgb(59.607843%,52.941176%,75.294118%);fill-opacity:1;" d="M 40.691406 78.144531 L 57.890625 78.144531 L 57.890625 87.199219 L 35.480469 87.199219 Z M 40.691406 78.144531 "/>
<path style=" stroke:none;fill-rule:nonzero;fill:rgb(59.607843%,52.941176%,75.294118%);fill-opacity:1;" d="M 33.328125 90.933594 L 57.890625 90.933594 L 57.890625 99.988281 L 28.113281 99.988281 Z M 33.328125 90.933594 "/>
<path style=" stroke:none;fill-rule:nonzero;fill:rgb(24.705882%,23.921569%,33.72549%);fill-opacity:1;" d="M 42.539062 44.503906 C 42.292969 44.257812 42.050781 44 41.8125 43.742188 L 42.070312 43.507812 C 42.300781 43.761719 42.542969 44.015625 42.789062 44.257812 Z M 42.539062 44.503906 "/>
<path style=" stroke:none;fill-rule:nonzero;fill:rgb(24.705882%,23.921569%,33.72549%);fill-opacity:1;" d="M 40.425781 42.101562 C 39.988281 41.539062 39.570312 40.953125 39.183594 40.355469 L 39.472656 40.164062 C 39.859375 40.753906 40.269531 41.332031 40.703125 41.886719 Z M 38.085938 38.507812 C 37.746094 37.878906 37.429688 37.230469 37.144531 36.574219 L 37.464844 36.4375 C 37.746094 37.082031 38.058594 37.722656 38.390625 38.339844 Z M 36.367188 34.574219 C 36.136719 33.898438 35.933594 33.207031 35.757812 32.511719 L 36.097656 32.425781 C 36.269531 33.109375 36.472656 33.792969 36.699219 34.460938 Z M 35.660156 30.351562 L 35.316406 30.410156 C 35.199219 29.703125 35.109375 28.988281 35.046875 28.277344 L 35.394531 28.25 C 35.453125 28.949219 35.542969 29.65625 35.660156 30.351562 Z M 35.300781 26.132812 L 34.953125 26.132812 C 34.953125 25.417969 34.980469 24.695312 35.035156 23.984375 L 35.382812 24.011719 C 35.328125 24.714844 35.300781 25.425781 35.300781 26.132812 Z M 35.640625 21.910156 L 35.296875 21.851562 C 35.414062 21.148438 35.558594 20.4375 35.734375 19.746094 L 36.070312 19.832031 C 35.898438 20.515625 35.753906 21.214844 35.640625 21.910156 Z M 82.3125 11.789062 C 81.921875 11.207031 81.503906 10.628906 81.066406 10.078125 L 81.339844 9.859375 C 81.78125 10.421875 82.207031 11.003906 82.601562 11.597656 Z M 36.671875 17.796875 L 36.339844 17.683594 C 36.570312 17.007812 36.832031 16.335938 37.117188 15.679688 L 37.4375 15.820312 C 37.15625 16.464844 36.898438 17.132812 36.671875 17.796875 Z M 79.683594 8.476562 C 79.199219 7.960938 78.691406 7.464844 78.171875 6.992188 L 78.40625 6.730469 C 78.933594 7.210938 79.449219 7.714844 79.9375 8.234375 Z M 38.359375 13.914062 L 38.054688 13.746094 C 38.390625 13.117188 38.757812 12.496094 39.144531 11.898438 L 39.4375 12.085938 C 39.054688 12.679688 38.695312 13.292969 38.359375 13.914062 Z M 76.546875 5.636719 C 75.988281 5.210938 75.40625 4.800781 74.8125 4.421875 L 75 4.125 C 75.601562 4.511719 76.191406 4.925781 76.757812 5.359375 Z M 40.660156 10.355469 L 40.382812 10.144531 C 40.820312 9.578125 41.28125 9.023438 41.761719 8.496094 L 42.019531 8.734375 C 41.546875 9.253906 41.089844 9.800781 40.660156 10.355469 Z M 72.988281 3.351562 C 72.367188 3.019531 71.726562 2.710938 71.082031 2.433594 L 71.21875 2.113281 C 71.871094 2.394531 72.523438 2.707031 73.152344 3.042969 Z M 43.507812 7.226562 L 43.269531 6.972656 C 43.789062 6.484375 44.335938 6.015625 44.894531 5.574219 L 45.113281 5.847656 C 44.558594 6.285156 44.019531 6.746094 43.507812 7.226562 Z M 69.105469 1.675781 C 68.441406 1.453125 67.757812 1.253906 67.074219 1.085938 L 67.160156 0.746094 C 67.847656 0.917969 68.542969 1.117188 69.21875 1.347656 Z M 46.824219 4.609375 L 46.632812 4.316406 C 47.226562 3.921875 47.84375 3.550781 48.464844 3.207031 L 48.632812 3.515625 C 48.019531 3.851562 47.410156 4.21875 46.824219 4.609375 Z M 65.003906 0.667969 C 64.308594 0.554688 63.601562 0.472656 62.902344 0.421875 L 62.929688 0.0703125 C 63.640625 0.125 64.355469 0.207031 65.058594 0.320312 Z M 50.527344 2.574219 L 50.386719 2.253906 C 51.035156 1.964844 51.707031 1.699219 52.378906 1.464844 L 52.492188 1.792969 C 51.828125 2.027344 51.167969 2.289062 50.527344 2.574219 Z M 60.789062 0.347656 C 60.089844 0.355469 59.378906 0.390625 58.679688 0.453125 L 58.648438 0.105469 C 59.355469 0.0429688 60.078125 0.00390625 60.785156 0 Z M 54.515625 1.179688 L 54.429688 0.839844 C 55.117188 0.664062 55.824219 0.511719 56.523438 0.386719 L 56.582031 0.730469 C 55.890625 0.851562 55.195312 1.003906 54.515625 1.179688 Z M 54.515625 1.179688 "/>
<path style=" stroke:none;fill-rule:nonzero;fill:rgb(24.705882%,23.921569%,33.72549%);fill-opacity:1;" d="M 83.910156 14.546875 C 83.753906 14.238281 83.59375 13.925781 83.425781 13.625 L 83.730469 13.453125 C 83.898438 13.761719 84.066406 14.074219 84.222656 14.390625 Z M 83.910156 14.546875 "/>
<path style=" stroke:none;fill-rule:nonzero;fill:rgb(59.607843%,52.941176%,75.294118%);fill-opacity:1;" d="M 93.257812 99.988281 L 76.972656 71.699219 L 73.316406 65.351562 L 64.882812 50.691406 L 60.6875 43.40625 L 56.492188 50.691406 L 48.054688 65.351562 L 44.402344 71.699219 L 42.839844 74.40625 L 57.890625 74.40625 L 57.890625 65.351562 L 61.617188 65.351562 L 61.617188 99.988281 Z M 72.363281 85.40625 C 73.515625 85.40625 74.453125 86.34375 74.453125 87.503906 C 74.453125 88.664062 73.515625 89.601562 72.363281 89.601562 C 71.207031 89.601562 70.269531 88.664062 70.269531 87.503906 C 70.269531 86.347656 71.207031 85.40625 72.363281 85.40625 Z M 60.296875 57.851562 L 57.953125 55.328125 L 60.46875 52.976562 L 62.8125 55.5 Z M 60.296875 57.851562 "/>
<path style=" stroke:none;fill-rule:nonzero;fill:rgb(94.901961%,94.901961%,94.901961%);fill-opacity:1;" d="M 59.757812 36.042969 C 59.757812 37.007812 58.980469 37.789062 58.015625 37.789062 C 57.054688 37.789062 56.273438 37.007812 56.273438 36.042969 C 56.273438 35.078125 57.054688 34.292969 58.015625 34.292969 C 58.980469 34.292969 59.757812 35.078125 59.757812 36.042969 Z M 59.757812 36.042969 "/>
<path style=" stroke:none;fill-rule:nonzero;fill:rgb(94.901961%,94.901961%,94.901961%);fill-opacity:1;" d="M 60.023438 10.753906 C 50.695312 12.554688 44.59375 21.597656 46.390625 30.953125 C 48.1875 40.304688 57.203125 46.425781 66.527344 44.625 C 75.851562 42.824219 81.957031 33.78125 80.160156 24.425781 C 78.363281 15.074219 69.347656 8.953125 60.023438 10.753906 Z M 58.410156 38.101562 C 57.277344 38.320312 56.179688 37.578125 55.960938 36.4375 C 55.742188 35.300781 56.488281 34.203125 57.621094 33.980469 C 58.753906 33.761719 59.851562 34.507812 60.070312 35.644531 C 60.285156 36.78125 59.546875 37.882812 58.410156 38.101562 Z M 70 22.796875 L 66.621094 23.449219 L 65.96875 20.0625 L 69.347656 19.410156 Z M 70 22.796875 "/>
<path style=" stroke:none;fill-rule:nonzero;fill:rgb(18.431373%,18.039216%,25.490196%);fill-opacity:1;" d="M 38.554688 47.464844 C 38.554688 53.734375 33.484375 58.820312 27.234375 58.820312 C 20.980469 58.820312 15.914062 53.734375 15.914062 47.464844 C 15.914062 41.195312 20.980469 36.109375 27.234375 36.109375 C 33.484375 36.109375 38.554688 41.195312 38.554688 47.464844 Z M 38.554688 47.464844 "/>
<path style=" stroke:none;fill-rule:nonzero;fill:rgb(18.431373%,18.039216%,25.490196%);fill-opacity:1;" d="M 22.859375 63.011719 L 19.476562 62.398438 L 20.574219 55.3125 L 23.957031 55.925781 Z M 22.859375 63.011719 "/>
<path style=" stroke:none;fill-rule:nonzero;fill:rgb(18.431373%,18.039216%,25.490196%);fill-opacity:1;" d="M 27.34375 56.539062 L 30.726562 57.15625 L 29.628906 63.234375 L 26.246094 62.621094 Z M 27.34375 56.539062 "/>
<path style=" stroke:none;fill-rule:nonzero;fill:rgb(18.431373%,18.039216%,25.490196%);fill-opacity:1;" d="M 29.222656 62.871094 C 28.011719 61.84375 26.722656 61.382812 26.339844 61.835938 C 25.957031 62.289062 26.625 63.488281 27.832031 64.515625 C 29.039062 65.542969 30.332031 66.003906 30.714844 65.550781 C 31.097656 65.097656 30.429688 63.898438 29.222656 62.871094 Z M 29.222656 62.871094 "/>
<path style=" stroke:none;fill-rule:nonzero;fill:rgb(18.431373%,18.039216%,25.490196%);fill-opacity:1;" d="M 22.59375 62.671875 C 21.386719 61.648438 20.097656 61.183594 19.710938 61.636719 C 19.328125 62.09375 19.996094 63.292969 21.203125 64.320312 C 22.414062 65.34375 23.703125 65.808594 24.085938 65.355469 C 24.46875 64.898438 23.800781 63.699219 22.59375 62.671875 Z M 22.59375 62.671875 "/>
<path style=" stroke:none;fill-rule:nonzero;fill:rgb(100%,100%,100%);fill-opacity:1;" d="M 31.894531 44.6875 C 31.894531 46.832031 30.164062 48.566406 28.023438 48.566406 C 25.886719 48.566406 24.15625 46.832031 24.15625 44.6875 C 24.15625 42.542969 25.886719 40.808594 28.023438 40.808594 C 30.164062 40.808594 31.894531 42.542969 31.894531 44.6875 Z M 31.894531 44.6875 "/>
<path style=" stroke:none;fill-rule:nonzero;fill:rgb(24.705882%,23.921569%,33.72549%);fill-opacity:1;" d="M 30.90625 43.296875 C 30.90625 44.011719 30.328125 44.589844 29.617188 44.589844 C 28.902344 44.589844 28.324219 44.011719 28.324219 43.296875 C 28.324219 42.582031 28.902344 42.003906 29.617188 42.003906 C 30.328125 42.003906 30.90625 42.582031 30.90625 43.296875 Z M 30.90625 43.296875 "/>
<path style=" stroke:none;fill-rule:nonzero;fill:rgb(59.607843%,52.941176%,75.294118%);fill-opacity:1;" d="M 18.300781 35.113281 C 18.132812 30.910156 21.746094 27.347656 26.371094 27.160156 C 30.996094 26.972656 34.882812 30.226562 35.054688 34.429688 C 35.226562 38.632812 32.007812 39.589844 27.382812 39.777344 C 22.757812 39.964844 18.472656 39.316406 18.300781 35.113281 Z M 18.300781 35.113281 "/>
<path style=" stroke:none;fill-rule:nonzero;fill:rgb(18.431373%,18.039216%,25.490196%);fill-opacity:1;" d="M 43.203125 44.128906 C 42.984375 43.167969 40.335938 42.957031 37.289062 43.660156 C 34.242188 44.359375 31.949219 45.703125 32.167969 46.664062 C 32.386719 47.625 35.035156 47.832031 38.082031 47.132812 C 41.128906 46.433594 43.421875 45.085938 43.203125 44.128906 Z M 43.203125 44.128906 "/>
<path style=" stroke:none;fill-rule:nonzero;fill:rgb(18.431373%,18.039216%,25.490196%);fill-opacity:1;" d="M 20.980469 47.835938 C 20.761719 46.875 18.113281 46.664062 15.066406 47.367188 C 12.019531 48.066406 9.726562 49.410156 9.945312 50.371094 C 10.167969 51.332031 12.8125 51.539062 15.859375 50.839844 C 18.90625 50.140625 21.199219 48.792969 20.980469 47.835938 Z M 20.980469 47.835938 "/>
<path style=" stroke:none;fill-rule:nonzero;fill:rgb(100%,100%,100%);fill-opacity:1;" d="M 24.125 51.9375 C 23.871094 53.34375 24.800781 54.691406 26.203125 54.945312 C 27.605469 55.199219 28.945312 54.265625 29.199219 52.859375 C 29.453125 51.453125 28.371094 50.957031 26.96875 50.703125 C 25.566406 50.449219 24.378906 50.535156 24.125 51.9375 Z M 24.125 51.9375 "/>
</g>
</svg>
