<?xml version="1.0" encoding="UTF-8"?>
<svg xmlns="http://www.w3.org/2000/svg" xmlns:xlink="http://www.w3.org/1999/xlink" width="100pt" height="100pt" viewBox="0 0 100 100" version="1.1">
<g id="surface1">
<path style=" stroke:none;fill-rule:nonzero;fill:rgb(59.215686%,52.941176%,78.823529%);fill-opacity:1;" d="M 100 50 C 100 77.613281 77.613281 100 50 100 C 22.386719 100 0 77.613281 0 50 C 0 22.386719 22.386719 0 50 0 C 77.613281 0 100 22.386719 100 50 Z M 100 50 "/>
<path style=" stroke:none;fill-rule:nonzero;fill:rgb(28.235294%,21.176471%,45.490196%);fill-opacity:1;" d="M 36.226562 28.632812 L 63.625 28.632812 L 63.625 67.019531 C 63.625 68.6875 62.269531 70.042969 60.601562 70.039062 L 36.226562 70.039062 Z M 36.226562 28.632812 "/>
<path style=" stroke:none;fill-rule:nonzero;fill:rgb(98.039216%,76.078431%,29.411765%);fill-opacity:1;" d="M 46.265625 54.992188 L 44.269531 54.992188 L 44.269531 52.996094 L 42.171875 52.996094 L 42.171875 54.992188 L 40.175781 54.992188 L 40.175781 57.089844 L 42.171875 57.089844 L 42.171875 59.082031 L 44.269531 59.082031 L 44.269531 57.089844 L 46.265625 57.089844 Z M 46.265625 54.992188 "/>
<path style=" stroke:none;fill-rule:nonzero;fill:rgb(98.823529%,32.941176%,32.941176%);fill-opacity:1;" d="M 53.953125 56.605469 L 55.183594 56.605469 C 55.542969 56.605469 55.835938 56.894531 55.835938 57.253906 L 55.835938 58.488281 C 55.835938 58.847656 55.542969 59.136719 55.183594 59.136719 L 53.953125 59.136719 C 53.59375 59.136719 53.300781 58.847656 53.300781 58.488281 L 53.300781 57.253906 C 53.300781 56.894531 53.59375 56.605469 53.953125 56.605469 Z M 53.953125 56.605469 "/>
<path style=" stroke:none;fill-rule:nonzero;fill:rgb(21.176471%,15.294118%,31.764706%);fill-opacity:1;" d="M 60.117188 33.371094 L 60.117188 47.199219 C 60.117188 47.585938 59.804688 47.898438 59.421875 47.898438 L 40.886719 47.898438 C 40.5 47.898438 40.1875 47.585938 40.1875 47.199219 L 40.1875 33.371094 C 40.1875 32.988281 40.5 32.675781 40.886719 32.675781 L 59.421875 32.675781 C 59.804688 32.675781 60.117188 32.988281 60.117188 33.371094 Z M 60.117188 33.371094 "/>
<path style=" stroke:none;fill-rule:nonzero;fill:rgb(21.176471%,15.294118%,31.764706%);fill-opacity:1;" d="M 42.347656 34.414062 L 57.960938 34.414062 C 58.191406 34.414062 58.378906 34.601562 58.378906 34.832031 L 58.378906 45.742188 C 58.378906 45.972656 58.191406 46.160156 57.960938 46.160156 L 42.347656 46.160156 C 42.117188 46.160156 41.929688 45.972656 41.929688 45.742188 L 41.929688 34.832031 C 41.929688 34.601562 42.117188 34.414062 42.347656 34.414062 Z M 42.347656 34.414062 "/>
<path style=" stroke:none;fill-rule:nonzero;fill:rgb(73.333333%,83.137255%,100%);fill-opacity:1;" d="M 42.652344 46.160156 L 48.097656 46.160156 L 58.378906 35.875 L 58.378906 35.132812 C 58.375 34.738281 58.058594 34.417969 57.660156 34.414062 L 52.050781 34.414062 L 41.929688 44.53125 L 41.929688 45.429688 C 41.929688 45.832031 42.253906 46.15625 42.652344 46.160156 Z M 42.652344 46.160156 "/>
<path style=" stroke:none;fill-rule:nonzero;fill:rgb(73.333333%,83.137255%,100%);fill-opacity:1;" d="M 58.367188 40.460938 L 52.671875 46.160156 L 56.449219 46.160156 L 58.367188 44.238281 Z M 58.367188 40.460938 "/>
<path style=" stroke:none;fill-rule:nonzero;fill:rgb(21.176471%,15.294118%,31.764706%);fill-opacity:1;" d="M 62.851562 28.21875 L 37.144531 28.21875 C 36.460938 28.21875 35.90625 28.777344 35.90625 29.460938 L 35.90625 70.539062 C 35.90625 71.222656 36.460938 71.777344 37.144531 71.78125 L 58.195312 71.78125 C 61.453125 71.78125 64.09375 69.136719 64.09375 65.878906 L 64.09375 29.460938 C 64.09375 28.777344 63.539062 28.21875 62.851562 28.21875 Z M 62.355469 65.542969 C 62.355469 68.023438 60.34375 70.039062 57.859375 70.039062 L 38.785156 70.039062 C 38.15625 70.039062 37.644531 69.527344 37.644531 68.894531 L 37.644531 31.097656 C 37.644531 30.464844 38.15625 29.953125 38.785156 29.953125 L 61.214844 29.953125 C 61.84375 29.953125 62.355469 30.464844 62.355469 31.097656 Z M 62.355469 65.542969 "/>
<path style=" stroke:none;fill-rule:nonzero;fill:rgb(98.823529%,32.941176%,32.941176%);fill-opacity:1;" d="M 58.371094 55.335938 C 58.371094 56.035156 57.800781 56.605469 57.101562 56.605469 C 56.402344 56.605469 55.835938 56.035156 55.835938 55.335938 C 55.835938 54.636719 56.402344 54.070312 57.101562 54.070312 C 57.800781 54.070312 58.371094 54.636719 58.371094 55.335938 Z M 58.371094 55.335938 "/>
</g>
</svg>
