<?xml version="1.0" encoding="UTF-8"?>
<svg xmlns="http://www.w3.org/2000/svg" xmlns:xlink="http://www.w3.org/1999/xlink" width="75pt" height="75pt" viewBox="0 0 75 75" version="1.1">
<g id="surface1">
<path style=" stroke:none;fill-rule:nonzero;fill:rgb(59.215686%,52.941176%,78.823529%);fill-opacity:1;" d="M 75 37.5 C 75 58.210938 58.210938 75 37.5 75 C 16.789062 75 0 58.210938 0 37.5 C 0 16.789062 16.789062 0 37.5 0 C 58.210938 0 75 16.789062 75 37.5 Z M 75 37.5 "/>
<path style=" stroke:none;fill-rule:nonzero;fill:rgb(28.235294%,21.176471%,45.490196%);fill-opacity:1;" d="M 27.167969 21.476562 L 47.71875 21.476562 L 47.71875 50.265625 C 47.71875 51.515625 46.703125 52.53125 45.453125 52.53125 L 27.167969 52.53125 Z M 27.167969 21.476562 "/>
<path style=" stroke:none;fill-rule:nonzero;fill:rgb(98.039216%,76.078431%,29.411765%);fill-opacity:1;" d="M 34.699219 41.242188 L 33.203125 41.242188 L 33.203125 39.746094 L 31.628906 39.746094 L 31.628906 41.242188 L 30.132812 41.242188 L 30.132812 42.816406 L 31.628906 42.816406 L 31.628906 44.3125 L 33.203125 44.3125 L 33.203125 42.816406 L 34.699219 42.816406 Z M 34.699219 41.242188 "/>
<path style=" stroke:none;fill-rule:nonzero;fill:rgb(98.823529%,32.941176%,32.941176%);fill-opacity:1;" d="M 40.464844 42.453125 L 41.390625 42.453125 C 41.65625 42.453125 41.875 42.671875 41.875 42.941406 L 41.875 43.867188 C 41.875 44.136719 41.65625 44.351562 41.390625 44.351562 L 40.464844 44.351562 C 40.195312 44.351562 39.976562 44.136719 39.976562 43.867188 L 39.976562 42.941406 C 39.976562 42.671875 40.195312 42.453125 40.464844 42.453125 Z M 40.464844 42.453125 "/>
<path style=" stroke:none;fill-rule:nonzero;fill:rgb(21.176471%,15.294118%,31.764706%);fill-opacity:1;" d="M 45.089844 25.03125 L 45.089844 35.398438 C 45.089844 35.6875 44.855469 35.921875 44.566406 35.921875 L 30.664062 35.921875 C 30.375 35.921875 30.140625 35.6875 30.140625 35.398438 L 30.140625 25.03125 C 30.140625 24.742188 30.375 24.507812 30.664062 24.507812 L 44.566406 24.507812 C 44.855469 24.507812 45.089844 24.742188 45.089844 25.03125 Z M 45.089844 25.03125 "/>
<path style=" stroke:none;fill-rule:nonzero;fill:rgb(21.176471%,15.294118%,31.764706%);fill-opacity:1;" d="M 31.761719 25.8125 L 43.472656 25.8125 C 43.644531 25.8125 43.785156 25.949219 43.785156 26.125 L 43.785156 34.304688 C 43.785156 34.480469 43.644531 34.621094 43.472656 34.621094 L 31.761719 34.621094 C 31.585938 34.621094 31.445312 34.480469 31.445312 34.304688 L 31.445312 26.125 C 31.445312 25.949219 31.585938 25.8125 31.761719 25.8125 Z M 31.761719 25.8125 "/>
<path style=" stroke:none;fill-rule:nonzero;fill:rgb(73.333333%,83.137255%,100%);fill-opacity:1;" d="M 31.988281 34.617188 L 36.074219 34.617188 L 43.785156 26.90625 L 43.785156 26.351562 C 43.78125 26.054688 43.542969 25.8125 43.246094 25.808594 L 39.039062 25.808594 L 31.449219 33.398438 L 31.449219 34.074219 C 31.449219 34.375 31.691406 34.617188 31.988281 34.617188 Z M 31.988281 34.617188 "/>
<path style=" stroke:none;fill-rule:nonzero;fill:rgb(73.333333%,83.137255%,100%);fill-opacity:1;" d="M 43.777344 30.347656 L 39.503906 34.621094 L 42.335938 34.621094 L 43.777344 33.179688 Z M 43.777344 30.347656 "/>
<path style=" stroke:none;fill-rule:nonzero;fill:rgb(21.176471%,15.294118%,31.764706%);fill-opacity:1;" d="M 47.140625 21.164062 L 27.859375 21.164062 C 27.347656 21.164062 26.929688 21.582031 26.929688 22.097656 L 26.929688 52.902344 C 26.929688 53.417969 27.34375 53.835938 27.859375 53.835938 L 43.644531 53.835938 C 46.089844 53.835938 48.070312 51.851562 48.070312 49.410156 L 48.070312 22.097656 C 48.070312 21.582031 47.652344 21.164062 47.140625 21.164062 Z M 46.765625 49.15625 C 46.765625 51.019531 45.257812 52.527344 43.394531 52.527344 L 29.089844 52.527344 C 28.617188 52.527344 28.234375 52.144531 28.234375 51.671875 L 28.234375 23.324219 C 28.234375 22.847656 28.617188 22.464844 29.089844 22.464844 L 45.910156 22.464844 C 46.382812 22.464844 46.765625 22.847656 46.765625 23.324219 Z M 46.765625 49.15625 "/>
<path style=" stroke:none;fill-rule:nonzero;fill:rgb(98.823529%,32.941176%,32.941176%);fill-opacity:1;" d="M 43.777344 41.503906 C 43.777344 42.027344 43.351562 42.453125 42.828125 42.453125 C 42.300781 42.453125 41.875 42.027344 41.875 41.503906 C 41.875 40.976562 42.300781 40.550781 42.828125 40.550781 C 43.351562 40.550781 43.777344 40.976562 43.777344 41.503906 Z M 43.777344 41.503906 "/>
</g>
</svg>
