<?xml version="1.0" standalone="no"?>
<!DOCTYPE svg PUBLIC "-//W3C//DTD SVG 20010904//EN"
 "http://www.w3.org/TR/2001/REC-SVG-20010904/DTD/svg10.dtd">
<svg version="1.0" xmlns="http://www.w3.org/2000/svg"
 width="980.000000pt" height="980.000000pt" viewBox="0 0 980.000000 980.000000"
 preserveAspectRatio="xMidYMid meet">

<g transform="translate(0.000000,980.000000) scale(0.100000,-0.100000)"
fill="#000000" stroke="none">
<path d="M1514 9786 c-57 -18 -161 -72 -216 -112 -137 -101 -279 -313 -325
-484 -24 -94 -22 -242 6 -350 28 -109 129 -314 223 -455 41 -60 127 -188 191
-284 275 -406 326 -624 207 -891 -41 -93 -44 -107 -26 -135 36 -55 184 -19
257 62 57 63 74 126 73 273 -1 226 -43 317 -410 875 -103 158 -194 339 -230
460 -34 115 -39 292 -11 395 39 144 131 296 271 448 89 96 116 136 116 173 0
41 -46 50 -126 25z"/>
<path d="M5550 9731 c0 -20 100 -96 299 -227 563 -373 802 -603 803 -776 1
-80 -29 -138 -115 -222 -40 -39 -130 -111 -201 -161 -388 -271 -506 -365 -686
-545 -216 -216 -450 -549 -450 -641 0 -66 54 -109 135 -109 86 0 134 44 178
162 75 198 230 343 717 673 464 315 615 441 720 600 63 98 83 164 79 268 -4
72 -9 93 -42 160 -45 91 -166 225 -285 314 -176 132 -492 306 -725 397 -210
83 -427 137 -427 107z"/>
<path d="M4328 9710 c-25 -15 -41 -74 -33 -123 15 -86 34 -119 123 -211 249
-258 358 -530 324 -803 -14 -109 -63 -266 -117 -373 -61 -122 -166 -284 -359
-555 -102 -143 -213 -306 -247 -363 l-63 -104 15 -41 c38 -110 195 -119 271
-17 10 14 27 59 39 100 50 184 132 304 427 629 160 177 235 279 297 406 63
130 85 219 85 349 0 170 -33 294 -134 501 -140 286 -307 486 -477 574 -81 41
-119 49 -151 31z"/>
<path d="M2580 8951 c-49 -16 -88 -41 -115 -73 l-28 -33 5 -150 c7 -188 34
-317 125 -580 178 -521 187 -557 187 -818 l1 -189 33 -29 c65 -58 188 -29 237
56 29 51 38 156 24 290 -14 132 -27 196 -104 480 -35 132 -71 280 -80 329 -30
174 -15 354 40 473 28 63 31 92 11 131 -37 71 -121 114 -231 118 -44 2 -91 0
-105 -5z"/>
<path d="M225 6726 c-89 -28 -152 -82 -196 -166 l-24 -45 0 -2220 0 -2220 21
-50 c12 -27 32 -93 44 -145 30 -129 80 -280 134 -403 364 -832 1139 -1389
2043 -1467 88 -8 556 -10 1513 -8 1525 4 1437 1 1715 68 327 78 672 247 940
460 98 78 272 247 340 329 l50 61 336 0 c354 0 474 7 654 41 492 90 928 321
1285 679 444 444 691 1010 717 1640 33 835 -368 1631 -1067 2112 -368 254
-793 396 -1262 424 l-117 7 -3 346 -3 346 -27 50 c-34 64 -90 118 -153 147
l-50 23 -3425 2 c-2743 1 -3433 -1 -3465 -11z m7352 -2155 c178 -35 304 -86
453 -186 254 -168 436 -428 511 -728 27 -106 37 -350 20 -467 -58 -392 -311
-740 -669 -919 -129 -65 -307 -111 -474 -125 l-68 -5 0 1224 0 1225 65 0 c35
0 108 -9 162 -19z"/>
</g>
</svg>
